Coordinates
version=1
nRows=11
nColumns=36
inDegrees=yes

Units are S.I. units (second, meters, Newtons, ...)
If the header above contains a line with 'inDegrees', this indicates whether rotational values are in degrees (yes) or radians (no).

endheader
time	pelvis_tilt	pelvis_list	pelvis_rotation	pelvis_tx	pelvis_ty	pelvis_tz	hip_flexion_r	hip_adduction_r	hip_rotation_r	knee_angle_r	knee_angle_r_beta	ankle_angle_r	subtalar_angle_r	mtp_angle_r	hip_flexion_l	hip_adduction_l	hip_rotation_l	knee_angle_l	knee_angle_l_beta	ankle_angle_l	subtalar_angle_l	mtp_angle_l	lumbar_extension	lumbar_bending	lumbar_rotation	arm_flex_r	arm_add_r	arm_rot_r	elbow_flex_r	pro_sup_r	arm_flex_l	arm_add_l	arm_rot_l	elbow_flex_l	pro_sup_l
      0.00000000	     -7.23482325	      3.07321680	    179.99383923	      0.72268129	      1.11248874	      0.69854275	    -10.65064201	      4.99704258	      2.95663653	     10.27252016	      0.17928930	      6.04754591	     -7.46074960	     -7.81945071	     12.86726390	     -5.53628962	     -4.66026875	     15.81738359	      0.27606542	     -4.74782444	     -8.76324280	     -7.81945071	    -22.13420137	      2.40173002	      8.38537985	     16.08330857	    -21.76053854	      5.55427547	     40.04966005	     97.94274006	      6.13762918	     -7.79832924	     -1.16823643	     20.73969625	    101.23835503
      0.01666670	     -5.58000848	      4.42242407	    179.34239519	      0.72478485	      1.10872295	      0.69914137	     -9.37501574	      6.48081825	      4.29171591	     11.33109089	      0.19776484	      7.67170429	     -7.12362821	     -7.78892169	     14.53492949	     -6.99104579	     -4.52719119	     12.16868093	      0.21238355	     -6.98467380	     -4.79005777	     -7.78892169	    -20.14728988	      4.03606933	      8.19526828	     17.05460859	    -22.38608729	      8.00142816	     41.35818970	     97.65596553	      5.93192531	     -7.46917385	      4.55897831	     18.99888328	    102.41008011
      0.03333330	     -4.49266873	      5.29338241	    178.85549180	      0.72704637	      1.10542602	      0.70004573	     -8.40062116	      7.24433081	      3.42268613	     12.53871165	      0.21884180	      9.48042303	     -5.97994788	     -7.72105605	     15.30487749	     -7.89106036	     -4.67455156	      8.86204263	      0.15467182	     -7.56065113	     -2.56000377	     -7.72105605	    -18.49098741	      5.02765280	      8.69163703	     17.16938643	    -23.57315726	     10.34945373	     42.01840490	     98.25097452	      6.08475400	     -7.68726716	     10.02378486	     17.13810670	    101.98592155
      0.05000000	     -3.84359114	      5.89418930	    178.68276577	      0.72760383	      1.10360567	      0.70306139	     -7.96629477	      7.76186322	      2.97115745	     13.60555588	      0.23746175	     10.98580784	     -5.58278067	     -7.68796020	     16.16458494	     -8.43199092	     -4.43183664	      6.81196336	      0.11889119	     -7.44957179	     -2.06716640	     -7.68796020	    -17.51666203	      5.63010920	      8.72062794	     16.91416055	    -24.41162939	     11.73881832	     42.38107258	     99.56438811	      6.19621492	     -7.64319996	     12.36166593	     15.95589306	    102.04782335
      0.06666670	     -3.19330116	      6.41453370	    178.47422393	      0.72432868	      1.09994545	      0.70659971	     -7.69970015	      8.09351387	      2.58917241	     14.74843455	      0.25740874	     12.11115793	     -4.91681136	     -7.66181105	     16.91839750	     -8.89514801	     -3.87984279	      5.43376020	      0.09483701	     -7.47325618	     -1.28023696	     -7.66181105	    -16.36916854	      6.14571368	      8.77227448	     16.23800822	    -25.24024040	     12.70362183	     42.45766985	     99.64761632	      6.20419166	     -7.38681859	     14.13946038	     14.56532407	    101.71933284
      0.08333330	     -2.96600814	      6.62235376	    178.16051956	      0.71963102	      1.09498042	      0.70848488	     -7.94058503	      8.15086093	      2.86986164	     15.92928221	      0.27801842	     12.58291286	     -5.18942359	     -7.65900501	     17.14584722	     -9.08603226	     -3.22677881	      4.88130350	      0.08519482	     -7.43095051	     -1.00456325	     -7.65900501	    -15.83055418	      6.19620737	      8.62306381	     15.56346045	    -25.55795480	     12.79210795	     42.35661276	     99.75296921	      5.67389199	     -7.27234192	     14.32471643	     14.36378043	    101.80175361
      0.10000000	     -3.01776623	      6.70639325	    177.83320225	      0.71611793	      1.09090178	      0.70961555	     -8.35812681	      8.06458516	      3.10462424	     17.49010024	      0.30525984	     12.73986127	     -5.56328429	     -7.65726740	     17.07118796	     -9.11628927	     -2.41359442	      5.16916547	      0.09021896	     -7.32841750	     -0.89435220	     -7.65726740	    -15.58390223	      6.13935495	      8.51954805	     14.97431628	    -25.77643344	     12.80774021	     42.20220318	     99.63264851	      5.11242045	     -7.19400298	     14.38288578	     14.21307875	    101.70250180
      0.11666670	     -2.94532465	      6.62626590	    177.34143777	      0.71455651	      1.08528310	      0.71198073	     -8.26329266	      7.79352864	      3.61670556	     19.92772376	      0.34780439	     12.49363850	     -6.58294320	     -7.57002054	     17.10353999	     -8.92453846	     -1.49636242	      5.92568691	      0.10342275	     -7.80034167	     -1.77200910	     -7.57002054	    -15.19952498	      5.77776200	      9.33686218	     13.73665154	    -26.37228269	     13.53027923	     42.29496712	     93.88227009	      5.73924582	     -6.86761784	     18.51938942	     11.87563700	     97.60675895
      0.13333330	     -2.78227256	      6.53741810	    176.93127370	      0.71326442	      1.07856402	      0.71607097	     -7.66055069	      7.42694002	      3.85860519	     23.23286174	      0.40548993	     12.14433917	     -7.68549474	     -7.52675255	     17.29845085	     -8.62833265	     -0.58730764	      7.00442151	      0.12225022	     -8.23286237	     -2.63995797	     -7.52675255	    -14.99772912	      5.48301410	     10.14907446	     12.22327368	    -26.06409312	     10.40557198	     42.64310036	     98.18257669	      5.81549450	     -6.47419665	     16.01098598	     11.55753275	    102.18781865
      0.15000000	     -2.72635363	      6.40437244	    176.58691265	      0.71175152	      1.07264234	      0.71988758	     -6.76491791	      6.89664174	      3.84509981	     27.26121556	      0.47579797	     11.80820946	     -8.61689617	     -7.52154174	     17.40509624	     -8.20706758	      0.30443962	      8.25834089	      0.14413524	     -8.67856647	     -3.83490397	     -7.52154174	    -14.98019898	      5.26476653	     10.15834311	     12.20572677	    -25.94310125	     11.28659862	     42.12228286	     95.79076164	      5.69362040	     -6.28796216	     16.15959388	     11.17702404	    100.15154168
      0.16666670	     -2.66197475	      6.23553929	    176.24547265	      0.71041337	      1.07035058	      0.72183050	     -5.40762505	      6.29480624	      3.67771614	     31.97461420	      0.55806229	     11.33112950	     -9.43239234	     -7.51441228	     17.55807247	     -7.74441461	      0.97872381	      9.74203020	      0.17003050	     -9.01943077	     -5.15539238	     -7.51441228	    -15.07680270	      4.90920235	     10.58020478	     11.49451026	    -25.64725788	     10.65554838	     42.17860987	     95.00347870	      6.09701303	     -6.15621905	     16.35470865	     10.72665879	    101.17401626
